<mxfile host="app.diagrams.net" modified="2023-05-27T15:42:40.293Z" agent="Mozilla/5.0 (Windows NT 10.0; Win64; x64) AppleWebKit/537.36 (KHTML, like Gecko) Chrome/113.0.0.0 Safari/537.36" etag="4Awk28shM4sZ1IiimRj4" version="21.3.2" type="github">
  <diagram id="C5RBs43oDa-KdzZeNtuy" name="Page-1">
    <mxGraphModel dx="1562" dy="778" grid="1" gridSize="10" guides="1" tooltips="1" connect="1" arrows="1" fold="1" page="1" pageScale="1" pageWidth="827" pageHeight="1169" math="0" shadow="0">
      <root>
        <mxCell id="WIyWlLk6GJQsqaUBKTNV-0" />
        <mxCell id="WIyWlLk6GJQsqaUBKTNV-1" parent="WIyWlLk6GJQsqaUBKTNV-0" />
        <mxCell id="eX-Rb2OdR5M5sHY_mCrx-0" value="Procuradores" style="rounded=0;whiteSpace=wrap;html=1;" parent="WIyWlLk6GJQsqaUBKTNV-1" vertex="1">
          <mxGeometry x="620" y="300" width="120" height="60" as="geometry" />
        </mxCell>
        <mxCell id="eX-Rb2OdR5M5sHY_mCrx-1" value="Clientes" style="rounded=0;whiteSpace=wrap;html=1;" parent="WIyWlLk6GJQsqaUBKTNV-1" vertex="1">
          <mxGeometry x="90" y="290" width="120" height="60" as="geometry" />
        </mxCell>
        <mxCell id="eX-Rb2OdR5M5sHY_mCrx-2" value="Asuntos" style="rounded=0;whiteSpace=wrap;html=1;" parent="WIyWlLk6GJQsqaUBKTNV-1" vertex="1">
          <mxGeometry x="390" y="400" width="120" height="60" as="geometry" />
        </mxCell>
        <mxCell id="eX-Rb2OdR5M5sHY_mCrx-7" value="(PK)Rut_procurador" style="rounded=1;whiteSpace=wrap;html=1;" parent="WIyWlLk6GJQsqaUBKTNV-1" vertex="1">
          <mxGeometry x="620" y="230" width="120" height="40" as="geometry" />
        </mxCell>
        <mxCell id="eX-Rb2OdR5M5sHY_mCrx-10" value="Direccion_procurador" style="rounded=1;whiteSpace=wrap;html=1;" parent="WIyWlLk6GJQsqaUBKTNV-1" vertex="1">
          <mxGeometry x="620" y="100" width="120" height="40" as="geometry" />
        </mxCell>
        <mxCell id="eX-Rb2OdR5M5sHY_mCrx-11" value="N_caso" style="rounded=1;whiteSpace=wrap;html=1;" parent="WIyWlLk6GJQsqaUBKTNV-1" vertex="1">
          <mxGeometry x="620" y="160" width="120" height="40" as="geometry" />
        </mxCell>
        <mxCell id="eX-Rb2OdR5M5sHY_mCrx-12" value="(PK)N_caso" style="rounded=1;whiteSpace=wrap;html=1;" parent="WIyWlLk6GJQsqaUBKTNV-1" vertex="1">
          <mxGeometry x="390" y="580" width="120" height="40" as="geometry" />
        </mxCell>
        <mxCell id="eX-Rb2OdR5M5sHY_mCrx-13" value="DNI_Cliente" style="rounded=1;whiteSpace=wrap;html=1;" parent="WIyWlLk6GJQsqaUBKTNV-1" vertex="1">
          <mxGeometry x="390" y="695" width="120" height="40" as="geometry" />
        </mxCell>
        <mxCell id="eX-Rb2OdR5M5sHY_mCrx-15" value="Fecha_inicio" style="rounded=1;whiteSpace=wrap;html=1;" parent="WIyWlLk6GJQsqaUBKTNV-1" vertex="1">
          <mxGeometry x="390" y="755" width="120" height="40" as="geometry" />
        </mxCell>
        <mxCell id="eX-Rb2OdR5M5sHY_mCrx-16" value="Fecha_termino" style="rounded=1;whiteSpace=wrap;html=1;" parent="WIyWlLk6GJQsqaUBKTNV-1" vertex="1">
          <mxGeometry x="390" y="815" width="120" height="40" as="geometry" />
        </mxCell>
        <mxCell id="eX-Rb2OdR5M5sHY_mCrx-18" value="(PK)Rut_Cliente" style="rounded=1;whiteSpace=wrap;html=1;" parent="WIyWlLk6GJQsqaUBKTNV-1" vertex="1">
          <mxGeometry x="90" y="230" width="120" height="40" as="geometry" />
        </mxCell>
        <mxCell id="eX-Rb2OdR5M5sHY_mCrx-19" value="N_caso" style="rounded=1;whiteSpace=wrap;html=1;" parent="WIyWlLk6GJQsqaUBKTNV-1" vertex="1">
          <mxGeometry x="90" y="180" width="120" height="40" as="geometry" />
        </mxCell>
        <mxCell id="eX-Rb2OdR5M5sHY_mCrx-20" value="Direccion Cliente" style="rounded=1;whiteSpace=wrap;html=1;" parent="WIyWlLk6GJQsqaUBKTNV-1" vertex="1">
          <mxGeometry x="90" y="120" width="120" height="40" as="geometry" />
        </mxCell>
        <mxCell id="eX-Rb2OdR5M5sHY_mCrx-21" value="" style="endArrow=none;html=1;rounded=0;entryX=0.5;entryY=1;entryDx=0;entryDy=0;exitX=0;exitY=0.5;exitDx=0;exitDy=0;" parent="WIyWlLk6GJQsqaUBKTNV-1" source="eX-Rb2OdR5M5sHY_mCrx-29" target="eX-Rb2OdR5M5sHY_mCrx-1" edge="1">
          <mxGeometry width="50" height="50" relative="1" as="geometry">
            <mxPoint x="270" y="430" as="sourcePoint" />
            <mxPoint x="220" y="360" as="targetPoint" />
            <Array as="points">
              <mxPoint x="150" y="430" />
            </Array>
          </mxGeometry>
        </mxCell>
        <mxCell id="eX-Rb2OdR5M5sHY_mCrx-22" value="" style="endArrow=none;html=1;rounded=0;exitX=1;exitY=0.5;exitDx=0;exitDy=0;entryX=0.563;entryY=1.032;entryDx=0;entryDy=0;entryPerimeter=0;" parent="WIyWlLk6GJQsqaUBKTNV-1" source="eX-Rb2OdR5M5sHY_mCrx-31" target="eX-Rb2OdR5M5sHY_mCrx-0" edge="1">
          <mxGeometry width="50" height="50" relative="1" as="geometry">
            <mxPoint x="290" y="440" as="sourcePoint" />
            <mxPoint x="340" y="390" as="targetPoint" />
            <Array as="points">
              <mxPoint x="688" y="430" />
            </Array>
          </mxGeometry>
        </mxCell>
        <mxCell id="eX-Rb2OdR5M5sHY_mCrx-24" value="Nombre_Procurador" style="rounded=1;whiteSpace=wrap;html=1;" parent="WIyWlLk6GJQsqaUBKTNV-1" vertex="1">
          <mxGeometry x="620" y="40" width="120" height="40" as="geometry" />
        </mxCell>
        <mxCell id="eX-Rb2OdR5M5sHY_mCrx-26" value="Nombre_Cliente" style="rounded=1;whiteSpace=wrap;html=1;" parent="WIyWlLk6GJQsqaUBKTNV-1" vertex="1">
          <mxGeometry x="90" y="60" width="120" height="40" as="geometry" />
        </mxCell>
        <mxCell id="eX-Rb2OdR5M5sHY_mCrx-28" value="DNI_Abogado" style="rounded=1;whiteSpace=wrap;html=1;" parent="WIyWlLk6GJQsqaUBKTNV-1" vertex="1">
          <mxGeometry x="390" y="635" width="120" height="40" as="geometry" />
        </mxCell>
        <mxCell id="eX-Rb2OdR5M5sHY_mCrx-29" value="Tienen" style="rhombus;whiteSpace=wrap;html=1;" parent="WIyWlLk6GJQsqaUBKTNV-1" vertex="1">
          <mxGeometry x="190" y="390" width="80" height="80" as="geometry" />
        </mxCell>
        <mxCell id="eX-Rb2OdR5M5sHY_mCrx-30" value="" style="endArrow=none;html=1;rounded=0;exitX=1;exitY=0.5;exitDx=0;exitDy=0;" parent="WIyWlLk6GJQsqaUBKTNV-1" source="eX-Rb2OdR5M5sHY_mCrx-29" target="eX-Rb2OdR5M5sHY_mCrx-2" edge="1">
          <mxGeometry width="50" height="50" relative="1" as="geometry">
            <mxPoint x="270" y="420" as="sourcePoint" />
            <mxPoint x="320" y="370" as="targetPoint" />
          </mxGeometry>
        </mxCell>
        <mxCell id="eX-Rb2OdR5M5sHY_mCrx-31" value="Llevan" style="rhombus;whiteSpace=wrap;html=1;" parent="WIyWlLk6GJQsqaUBKTNV-1" vertex="1">
          <mxGeometry x="590" y="390" width="80" height="80" as="geometry" />
        </mxCell>
        <mxCell id="eX-Rb2OdR5M5sHY_mCrx-32" value="" style="endArrow=none;html=1;rounded=0;exitX=1;exitY=0.5;exitDx=0;exitDy=0;entryX=0;entryY=0.5;entryDx=0;entryDy=0;" parent="WIyWlLk6GJQsqaUBKTNV-1" source="eX-Rb2OdR5M5sHY_mCrx-2" target="eX-Rb2OdR5M5sHY_mCrx-31" edge="1">
          <mxGeometry width="50" height="50" relative="1" as="geometry">
            <mxPoint x="560" y="310" as="sourcePoint" />
            <mxPoint x="560" y="430" as="targetPoint" />
          </mxGeometry>
        </mxCell>
      </root>
    </mxGraphModel>
  </diagram>
</mxfile>
